<svg class="icon" viewBox="0 0 1024 1024" xmlns="http://www.w3.org/2000/svg" width="128" height="128"><defs><style/></defs><path d="M780.8 486.4c25.6 0 51.2 6.4 76.8 12.8V281.6L569.6 0H0v972.8h550.4c-38.4-57.6-64-121.6-64-192 0-166.4 134.4-294.4 294.4-294.4zM537.6 108.8l217.6 217.6H537.6V108.8zm-371.2 224H384v64H166.4v-64zM377.6 672H166.4v-64H384l-6.4 64zm57.6-140.8H166.4v-64h268.8v64z"/><path d="M761.6 768L896 569.6c-38.4-19.2-76.8-32-115.2-32-134.4 0-243.2 108.8-243.2 243.2C537.6 915.2 640 1024 768 1024h12.8c134.4 0 236.8-102.4 243.2-236.8L761.6 768z"/></svg>
