<svg class="icon" viewBox="0 0 1024 1024" xmlns="http://www.w3.org/2000/svg" width="128" height="128"><defs><style/></defs><path d="M682.61 234.56A170.61 170.61 0 1 1 512 64a170.62 170.62 0 0 1 170.61 170.56zm-85.31 0a85.3 85.3 0 1 0-85.3 85.3 85.39 85.39 0 0 0 85.3-85.3zM131.2 598.63a170.61 170.61 0 1 1-62.45 233.06 170.61 170.61 0 0 1 62.45-233.06zm42.65 73.88a85.3 85.3 0 1 0 116.52 31.22 85.4 85.4 0 0 0-116.52-31.22zM722.2 894.13a170.61 170.61 0 1 1 233-62.44 170.61 170.61 0 0 1-233 62.44zm42.65-73.87a85.3 85.3 0 1 0-31.22-116.53 85.41 85.41 0 0 0 31.22 116.53z" fill="#949DA6"/><path d="M732.05 324.16c-11.57 16.45-10.89 38.24 2.52 53.24a292.36 292.36 0 0 1 72.09 244.25c28.19 1.84 56.36 9.29 82.51 24.23a381 381 0 0 0-91.71-326.71c-17.69-19.66-49.79-17.42-64.91 4.28-.16.24-.33.48-.5.71zM228.51 482.35a299.88 299.88 0 0 1 175.86-184.74c-12.46-25.29-20.08-53.36-20.23-83.43a384.15 384.15 0 0 0-237.07 243.67c-8 24.74 9.92 50.88 35.84 53l.86.07c19.93 1.79 38.45-9.57 44.74-28.57zM620 892.39c-8.52-18.32-27.8-28.55-47.56-24.38a292.62 292.62 0 0 1-60.44 6.33 297 297 0 0 1-187.1-66.25c-15.68 23.46-36.19 44.09-62.18 59.26A382.09 382.09 0 0 0 512 959.64a376.44 376.44 0 0 0 77.9-8.17c26.48-5.6 42-33.81 30.44-58.3-.13-.26-.25-.52-.34-.78z"/></svg>
