<svg class="icon" viewBox="0 0 1024 1024" xmlns="http://www.w3.org/2000/svg" width="128" height="128"><defs><style/></defs><path d="M656.565 722.824h307.2v-60.236h-307.2zm0 144.564h307.2v-60.235h-307.2z"/><path d="M837.27 987.859V710.776h-60.235V987.86zM632.47 548.14l156.612 144.565 36.142-42.165-150.589-150.588z" fill="#222"/><path d="M939.67 499.953L789.083 650.54l42.165 42.165L981.835 548.14zm42.165-144.565V174.682c0-72.282-60.235-138.54-132.517-138.54H174.682c-72.282 0-132.517 60.234-132.517 138.54v680.66c0 72.282 60.235 138.54 132.517 138.54h313.224v-60.235H174.682c-42.164 0-72.282-36.141-72.282-78.306V174.682c0-42.164 36.141-78.306 72.282-78.306h674.636c42.164 0 72.282 36.142 72.282 78.306v186.73h60.235z"/><path d="M204.8 343.341h295.153v-60.235H204.8zm0 198.777h295.153v-60.236H204.8z"/></svg>
